<svg id="Capa_1" data-name="Capa 1" xmlns="http://www.w3.org/2000/svg" viewBox="0 0 90 90"><defs><style>.cls-1{fill:#71706f;}</style></defs><path class="cls-1" d="M19.08,21.56l51.47,0a7.46,7.46,0,0,1,6.6,6.62V61.86a7.46,7.46,0,0,1-6.6,6.62H19.45A7.49,7.49,0,0,1,12.85,62V28A7.51,7.51,0,0,1,19.08,21.56Zm54.8,9.24V28.69c0-2.11-2.37-4-4.42-3.9H20.27a4.38,4.38,0,0,0-4.16,3.89V30.8Zm0,9.83H16.11V61.31a4.38,4.38,0,0,0,4.16,3.89H69.46c2.05.14,4.42-1.79,4.42-3.9Z"/><path class="cls-1" d="M22.61,49.94l23.08,0a1.74,1.74,0,0,1,.93,1.11l0,7.44a1.57,1.57,0,0,1-1.37,1.09l-22.55-.07A1.56,1.56,0,0,1,21.56,58c-.21-2.19.16-4.73,0-7A1.67,1.67,0,0,1,22.61,49.94Z"/></svg>