<svg id="Capa_1" data-name="Capa 1" xmlns="http://www.w3.org/2000/svg" viewBox="0 0 30.65 26.96"><defs><style>.cls-1{fill:#957860;}</style></defs><path class="cls-1" d="M0,.6A1.06,1.06,0,0,1,.75,0L6.64,0A1,1,0,0,1,7.21.6l.64,2.89.14.1,22,0a.94.94,0,0,1,.57,1.17C29.36,9,28.23,13.33,26.92,17.55a1,1,0,0,1-.47.37L10.08,18a.9.9,0,1,0-.06,1.8H26.35a.92.92,0,0,1,.37,1.61,2.94,2.94,0,0,1-.3.18H24.89l1,.45a2.72,2.72,0,1,1-3.1,0l1-.45H12.27l1,.45a2.72,2.72,0,1,1-3.1,0l1-.45H9.42a5.19,5.19,0,0,1-1-.41,2.7,2.7,0,0,1,.41-4.74L5.62,1.8H.69A1.1,1.1,0,0,1,0,1.2Z"/></svg>