<svg id="Capa_1" data-name="Capa 1" xmlns="http://www.w3.org/2000/svg" viewBox="0 0 60 60"><defs><style>.cls-1{fill:#585856;}</style></defs><path class="cls-1" d="M3.63,33.71c1.8-2.07,3.81-4,5.77-5.92.17-.17.27-.4.45-.57A1.54,1.54,0,0,1,12,27l6.33,6.45c.46.28-.13,1.54-.4,1.54H14.34A16.51,16.51,0,0,0,36.87,45a17.9,17.9,0,0,0,6.7-5.57c.71.4,6,2.16,6.17,2.46.09.14,0,.16-.05.26a17.49,17.49,0,0,1-1.76,2.47,23.32,23.32,0,0,1-14.49,8.28C21.5,54.59,9.69,46.84,7.22,35c-.2-.13-2.42.08-2.92,0-.31,0-.46-.41-.67-.61Z"/><path class="cls-1" d="M46.08,26.7a16.4,16.4,0,0,0-28.65-7.26c-.66.8-1.18,1.69-1.81,2.51L9.54,19.6c-.12-.19.72-1.55.88-1.81a23.1,23.1,0,0,1,42.47,8.9c.52.12,2.82-.14,3.09.08a1.24,1.24,0,0,1,.09,1.73c-1.64,2.14-4.48,4.12-6.23,6.24a1.37,1.37,0,0,1-1.39.15c-1.91-1.85-4-3.69-5.78-5.66a6.81,6.81,0,0,1-1.13-1.45c0-.3.36-1.08.57-1.08Z"/></svg>