<svg id="Capa_1" data-name="Capa 1" xmlns="http://www.w3.org/2000/svg" viewBox="0 0 35 35"><defs><style>.cls-1{fill:#3c3c3b;}</style></defs><path class="cls-1" d="M5.07,10.55l.32-.82L16,20.28a2.39,2.39,0,0,0,3.1,0L29.66,9.92c.09,0,.06,0,.08.06a2.35,2.35,0,0,1,.19.79v13.5a3.9,3.9,0,0,1-.3,1L24,19.61a.8.8,0,0,0-1.19,1l5.69,5.68c.05.12-.6.29-.71.31-6.81.12-13.67.12-20.48,0-.11,0-.76-.19-.71-.31l5.73-5.73a.81.81,0,0,0-1.29-1l-5.6,5.61a4.44,4.44,0,0,1-.32-.83Z"/><path class="cls-1" d="M28.61,8.66c0,.07,0,.08,0,.12a11.89,11.89,0,0,1-1.2,1.14c-2.87,2.82-5.69,5.75-8.63,8.5a5.6,5.6,0,0,1-.95.79.79.79,0,0,1-.83-.14L6.53,8.63a2.63,2.63,0,0,1,1.24-.36H27.18A3.72,3.72,0,0,1,28.61,8.66Z"/></svg>