<svg id="Capa_1" data-name="Capa 1" xmlns="http://www.w3.org/2000/svg" viewBox="0 0 28.16 28.32"><defs><style>.cls-1{fill:#957860;}</style></defs><path class="cls-1" d="M11.37,0c7.66.62,11.94,9.5,7.78,16A10.43,10.43,0,0,1,.79,14.45,10.49,10.49,0,0,1,9.38,0,16.52,16.52,0,0,1,11.37,0ZM10.25,3.42a7,7,0,1,0,6.34,10.26A7,7,0,0,0,10.25,3.42Z"/><path class="cls-1" d="M20.34,16.74c.37,0,.56.21.83.42,2.24,1.73,4.38,3.81,6.57,5.63a2,2,0,0,1,.11,2.26,25.59,25.59,0,0,1-2.73,2.79,2,2,0,0,1-2.74-.13l-5.6-6.61c-.67-1,.34-1.37,1-1.9A14.5,14.5,0,0,0,19,17.9C19.41,17.48,19.71,16.74,20.34,16.74Z"/></svg>