<svg id="Capa_1" data-name="Capa 1" xmlns="http://www.w3.org/2000/svg" viewBox="0 0 90 90"><defs><style>.cls-1{fill:#71706f;}</style></defs><path class="cls-1" d="M84.29,45V60.56c-.66,1-1.79,1.11-3,1-2.24-.2-1.75-1.66-2.38-3.24-2.8-7.15-14.48-6.88-16.92.39-.43,1.3-.07,2.55-1.91,2.81-1.68.24-3.43,0-3.42-1.9.54-9.06-.71-18.84,0-27.81.08-1,.24-1.83,1.47-2.08,3.74.23,8-.34,11.66,0,1,.09,1.25.43,1.91,1.09ZM61.23,32.79A1.5,1.5,0,0,0,60,34a51.94,51.94,0,0,0,0,7.79A1.55,1.55,0,0,0,61.65,43c4.24-.3,9,.38,13.21,0,1.49-.13,2.06-1.28,1.21-2.44L69.4,33.13a2.13,2.13,0,0,0-1-.37A50.54,50.54,0,0,0,61.23,32.79Z"/><path class="cls-1" d="M53.24,61.09a1.94,1.94,0,0,1-.64.33c-6.79.31-13.67.13-20.49.09-1.65-.33-1.38-1.84-1.82-3-2.44-6.69-13.2-7.22-16.51-.94-.53,1-.72,3.25-1.55,3.73s-3.44.38-4.43.32-1.5-.14-1.95-.91C5.62,48,5.72,35.22,5.8,22.52a2.24,2.24,0,0,1,2.15-1H51.54c1.44.11,2.24.63,2.22,2.09v36A2.38,2.38,0,0,1,53.24,61.09Z"/><path class="cls-1" d="M20.73,55.84c5.79-.73,9.87,5,6.76,9.67-2.41,3.65-8.21,3.84-11,.43A6.28,6.28,0,0,1,20.73,55.84Zm2.44,7.55c1.52-1.35-.3-4-2.3-2.8C18.48,62,21.21,65.16,23.17,63.39Z"/><path class="cls-1" d="M75.34,66.56c-6.31,5.92-15.85-3.19-9.56-9S81.52,60.76,75.34,66.56Zm-5-6.26a1.81,1.81,0,1,0,.57,3.57A1.81,1.81,0,1,0,70.29,60.3Z"/></svg>