<svg id="Capa_1" data-name="Capa 1" xmlns="http://www.w3.org/2000/svg" viewBox="0 0 90 90"><defs><style>.cls-1{fill:#71706f;}</style></defs><path class="cls-1" d="M14.5,75.64,18.8,60c-12.44-22.26,5.65-49,31-45.29A30.47,30.47,0,0,1,75.24,40.79c3.15,24.62-22.87,42.43-44.62,30.66ZM22,68.24l9.36-2.36a25.24,25.24,0,0,0,35-7.72c9.52-15,.6-35.24-16.84-38.2C27.38,16.2,12,40.63,24.44,59.13Z"/><path class="cls-1" d="M34.21,30.68a8.08,8.08,0,0,1,2.25.1c.62.13.85.67,1.12,1.18A50.1,50.1,0,0,1,40,37.62c.73,2.27-2.39,3.78-2.39,4.94,0,.68,2.41,3.77,3,4.41a21,21,0,0,0,5.54,4.27c.6.31,2.4,1.19,3,1.08S51.42,49.62,52,49c1-1,1.3-.61,2.44-.15a50.55,50.55,0,0,1,5.91,3c.5.75,0,2.9-.37,3.72-.84,2-3.81,3.6-5.93,3.75-4.11.29-9.56-2.25-12.85-4.62-4.35-3.13-11.29-10.79-11.55-16.36C29.54,35.77,31.32,31.08,34.21,30.68Z"/></svg>