<svg id="Capa_1" data-name="Capa 1" xmlns="http://www.w3.org/2000/svg" viewBox="0 0 26.86 27.23"><defs><style>.cls-1{fill:#957860;}</style></defs><path class="cls-1" d="M7.54,14.54a8.74,8.74,0,0,0,4.89,2.15,8.85,8.85,0,0,0,6.87-2.15c.47-.37.48-.4,1-.07,3.8,2.29,7,7.6,6.47,11.85-.06.52-.36.66-.8.91l-25.25,0c-.3-.23-.58-.3-.69-.7a9.19,9.19,0,0,1,.17-2.94,13.9,13.9,0,0,1,6.27-9.1C7.06,14.14,7.07,14.17,7.54,14.54Z"/><path class="cls-1" d="M15,.18a7.41,7.41,0,0,1,5.2,9.69,7.3,7.3,0,0,1-9,4.49A7.35,7.35,0,0,1,15,.18Z"/></svg>