<svg id="Capa_1" data-name="Capa 1" xmlns="http://www.w3.org/2000/svg" viewBox="0 0 60 60"><path d="M27.62,1.33C51.72-.25,67.43,26.18,53.7,46.24a28.83,28.83,0,0,1-49-2.48C-5.19,25.66,7.06,2.69,27.62,1.33Zm-6.2,11.26c-5.43.48-8.81,4.31-9.17,9.66.85,8.93-3.76,23.94,9.37,25.22,9.13-.95,25.09,4.09,26-9.71-.92-8.53,3.71-23-8.36-25.06C33.55,12.77,27.09,12.09,21.42,12.59Z"/><path d="M24.41,15.69c3.47-.13,7.29-.15,10.76,0,2.58.08,5.54.09,7.41,2.13A7.7,7.7,0,0,1,44.41,22c.44,5.1-.32,10.8,0,16a6.63,6.63,0,0,1-6.59,6.27c-4.08.28-8.88.24-13,.11-4.55-.14-8.71-.72-9.33-6.18a99.87,99.87,0,0,1,0-14.78C15.86,17,18.43,15.91,24.41,15.69Zm14.69,3.2a1.84,1.84,0,0,0,.54,3.65C42,22.19,41.37,18.58,39.1,18.89Zm-10,1.85a9.31,9.31,0,1,0,8.84,14A9.33,9.33,0,0,0,29.12,20.74Z"/><path d="M29.35,24c8.17-.77,9,11.64,1,12.14S21.55,24.69,29.35,24Z"/></svg>