<svg id="Capa_1" data-name="Capa 1" xmlns="http://www.w3.org/2000/svg" viewBox="0 0 35 35"><defs><style>.cls-1{fill:#3c3c3b;}</style></defs><path class="cls-1" d="M23.28,29.91a7.57,7.57,0,0,1-1.26,0,16.29,16.29,0,0,1-6.4-2.55,25.54,25.54,0,0,1-8.6-9c-1.1-2-2.77-5.72-1.49-7.86A19,19,0,0,1,8.19,7.76,1.69,1.69,0,0,1,10,7.64a25.73,25.73,0,0,1,3.41,3.24c.83.95,1,1.74.12,2.75-.27.32-2,1.85-2,2s.28.85.43,1.12a18.25,18.25,0,0,0,6.09,6.14,7.47,7.47,0,0,0,1.12.53.37.37,0,0,0,.29-.1c1.26-.88,2.32-3.44,4.25-2.11a29.73,29.73,0,0,1,3.21,3.15c1.44,1.66.15,2.62-1,3.79A4.58,4.58,0,0,1,23.28,29.91Z"/><path class="cls-1" d="M29.93,16.76,28,17.05A12.3,12.3,0,0,0,17.6,7c.13-.64.16-1.29.3-1.91a14.2,14.2,0,0,1,11.56,9.66l.47,1.78Z"/><path class="cls-1" d="M22.94,17.39A6.59,6.59,0,0,0,17.37,12L17.65,10a8.61,8.61,0,0,1,7.28,7Z"/></svg>